<svg width="96" height="97" viewBox="0 0 96 97" fill="none" xmlns="http://www.w3.org/2000/svg">
<g clip-path="url(#clip0_23_567)">
<path d="M40.805 89.73C63.341 93.7451 84.8313 78.5407 88.805 55.77C92.7787 32.9992 77.731 11.2851 55.195 7.26997C32.6591 3.25488 11.1687 18.4593 7.19502 41.23C3.22132 64.0007 18.269 85.7149 40.805 89.73Z" fill="#6D1616" stroke="black" stroke-width="4"/>
<path d="M32.0977 23.7575C18.5737 32.6316 14.73 50.9031 23.5126 64.568C32.2952 78.2329 50.3783 82.1166 63.9023 73.2425C77.4264 64.3684 81.2701 46.0969 72.4874 32.432C63.7048 18.7671 45.6217 14.8834 32.0977 23.7575Z" fill="#AD1D1D"/>
<path fill-rule="evenodd" clip-rule="evenodd" d="M24.2312 56.0285C27.1261 69.7718 33.1235 68.4855 49.546 64.963L51.2734 62.843L49.6266 60.9897L50.5881 59.5883L47.9954 57.6002C33.9823 60.6055 31.0239 61.4198 29.6435 54.8676C28.2634 48.3147 31.1867 47.6876 45.2711 44.6669L48.0717 41.4775L44.9001 39.49L46.4292 38.0549L44.2592 37.3333C27.8364 40.8558 21.3362 42.285 24.2312 56.0285Z" fill="black"/>
<path fill-rule="evenodd" clip-rule="evenodd" d="M71.9544 45.7919C74.8496 59.5358 68.9692 60.7973 52.8686 64.2502L54.3323 62.3019L52.509 60.3896L53.3503 58.9575L51.3513 57.0486C65.09 54.1019 68.0284 53.4829 66.6479 46.9302C65.2681 40.3777 62.402 40.9924 48.5933 43.9542L51.0715 40.9006L47.9735 38.8579L49.1126 37.5226L47.0786 36.7632C63.1798 33.3096 69.0591 32.0482 71.9544 45.7919Z" fill="black"/>
<path d="M79.505 28.4257L60.973 41.048C58.9257 42.4427 58.3855 45.2502 59.7672 47.3187C61.1488 49.3873 63.929 49.9335 65.977 48.5388L84.5083 35.9164C86.5563 34.5218 87.0958 31.7143 85.7142 29.6458C84.3325 27.5772 81.5529 27.0309 79.505 28.4257Z" fill="black"/>
<path d="M11.7138 73.3185C10.093 71.4351 10.2898 68.5823 12.154 66.9455L29.0236 52.1364C30.8877 50.4996 33.7129 50.6995 35.3337 52.5828C36.9546 54.4663 36.7576 57.319 34.8935 58.9558L18.0237 73.7658C16.1599 75.4014 13.3347 75.202 11.7138 73.3185Z" fill="black"/>
<path d="M15.7604 71.2044C15.242 70.6026 15.3052 69.6898 15.9012 69.167L31.6164 55.3705C32.2126 54.8469 33.116 54.9109 33.6343 55.5132C34.1527 56.1155 34.0896 57.0282 33.4936 57.5511L17.7784 71.3472C17.1821 71.8712 16.2787 71.8069 15.7604 71.2044Z" fill="white"/>
<path d="M64.3758 45.9647C63.9337 45.3032 64.1066 44.4055 64.7618 43.9596L82.5894 31.8166C83.2446 31.3707 84.1334 31.5454 84.5755 32.2068C85.0169 32.8683 84.8447 33.7661 84.1901 34.2122L66.3618 46.355C65.7072 46.8011 64.8178 46.6262 64.3758 45.9647Z" fill="white"/>
<path d="M54.9638 62.2104C54.9242 61.9231 55.0994 61.6505 55.375 61.5697L65.7282 58.5341C66.6958 58.2498 67.5653 57.6972 68.2375 56.9385L70.3888 54.5102C70.5295 54.3515 70.7503 54.2933 70.95 54.3628C71.3091 54.4877 71.4218 54.9454 71.1619 55.2254L68.1294 58.4923C67.7172 58.9369 67.1939 59.2632 66.6141 59.4355L55.6997 62.6896C55.3615 62.7899 55.0128 62.5633 54.9638 62.2104Z" fill="white"/>
<path d="M48.5407 63.1115C48.4373 62.8406 48.1532 62.6878 47.8739 62.7521L37.3604 65.163C36.3773 65.389 35.3513 65.3306 34.3992 64.9955L31.3511 63.9245C31.1518 63.8543 30.9307 63.9115 30.7894 64.0703C30.5351 64.3553 30.6566 64.8108 31.0183 64.9282L35.2395 66.3018C35.8147 66.4888 36.4286 66.5178 37.0184 66.385L48.1276 63.8897C48.4717 63.813 48.6673 63.4442 48.5407 63.1115Z" fill="white"/>
<path d="M29.8267 31.2189L30.6879 22.9799L33.7671 30.6603L41.9253 31.533L34.3217 34.64L33.4604 42.8791L30.3812 35.1987L22.1868 34.3746L29.8267 31.2189Z" fill="white"/>
<path d="M55.259 28.4226L61.1599 22.6706L58.6331 30.554L64.3273 36.5211L56.5259 33.9629L50.6248 39.715L53.1519 31.8315L47.3989 25.8781L55.259 28.4226Z" fill="white"/>
<path d="M42.3142 43.903L39.9652 39.6161L44.0358 42.2817L48.2814 39.908L45.6406 44.0198L47.9897 48.3068L43.9191 45.6411L39.6722 48.0508L42.3142 43.903Z" fill="white"/>
<path d="M56.6946 83.6401C56.3055 83.7599 55.9408 83.7983 55.6006 83.754C55.2591 83.7056 54.9597 83.5676 54.7026 83.3392C54.4495 83.1097 54.2592 82.784 54.1314 82.3615C54.0062 81.9479 53.9912 81.5726 54.0862 81.2357C54.1813 80.8982 54.3605 80.6103 54.6238 80.3701C54.8912 80.1294 55.2153 79.95 55.5962 79.8326C55.7846 79.7742 55.9812 79.7358 56.1863 79.7181C56.3912 79.6998 56.5771 79.6922 56.7436 79.6951L56.8574 79.6939L56.9309 80.5808L56.784 80.6056C56.6385 80.628 56.4983 80.6533 56.3636 80.6811C56.2328 80.7082 56.0917 80.7448 55.9402 80.7914C55.7313 80.8563 55.5605 80.9431 55.4278 81.0516C55.295 81.1608 55.2077 81.2941 55.1659 81.4517C55.1281 81.608 55.1431 81.798 55.2107 82.0216C55.2796 82.2488 55.3715 82.4199 55.4866 82.5338C55.6003 82.643 55.7383 82.7067 55.9004 82.7244C56.0653 82.7368 56.2543 82.7102 56.4673 82.6447C56.5861 82.6081 56.7131 82.5621 56.8486 82.5067C56.9882 82.4494 57.1341 82.3845 57.2863 82.3102L57.5165 82.2052L57.93 82.9734L57.7997 83.0743C57.6506 83.1887 57.4772 83.2961 57.2796 83.3982C57.0862 83.4985 56.8911 83.5794 56.6946 83.6401Z" fill="black"/>
<path d="M61.3158 82.0093L60.1076 79.3912L58.9666 79.9288L58.559 79.0467L61.8426 77.4996L62.2502 78.3823L61.1091 78.9198L62.3167 81.5372L61.3158 82.0093Z" fill="black"/>
<path d="M70.6317 76.2239C70.3654 76.5685 70.0723 76.8146 69.7517 76.9621C69.4276 77.1072 69.0977 77.1574 68.763 77.1125C68.4244 77.0653 68.1003 76.919 67.7896 76.6741C67.476 76.4263 67.2582 76.1419 67.1367 75.8209C67.0158 75.4999 66.9884 75.1624 67.055 74.809C67.1221 74.4556 67.2833 74.1133 67.5391 73.7829C67.8054 73.4383 68.1008 73.1935 68.4243 73.0483C68.7479 72.8973 69.0772 72.8471 69.413 72.8979C69.7482 72.9427 70.0705 73.0879 70.3812 73.3327C70.6919 73.5782 70.9091 73.8626 71.0341 74.1859C71.1555 74.5069 71.1824 74.8444 71.1158 75.1978C71.0516 75.5477 70.8904 75.89 70.6317 76.2239ZM69.8323 75.5926C69.9508 75.4392 70.0297 75.2846 70.0688 75.1288C70.1044 74.9701 70.0933 74.8161 70.0355 74.6656C69.9765 74.5099 69.8597 74.3623 69.684 74.2237C69.5088 74.0856 69.3418 74.006 69.1835 73.9853C69.0258 73.9652 68.8763 73.993 68.7362 74.0685C68.5925 74.1423 68.46 74.2573 68.3391 74.4143C68.2229 74.5641 68.147 74.7181 68.1114 74.8769C68.0722 75.0326 68.0822 75.189 68.1405 75.3448C68.1989 75.4946 68.3152 75.6392 68.4909 75.7779C68.6632 75.9136 68.8285 75.995 68.9873 76.0215C69.1455 76.0416 69.2962 76.015 69.4399 75.9419C69.5829 75.8628 69.7137 75.746 69.8323 75.5926Z" fill="black"/>
<path d="M37.0051 82.892L37.8648 79.1293L39.4045 79.4886C39.8301 79.5877 40.1877 79.7447 40.4772 79.9583C40.7667 80.1725 40.9694 80.4398 41.0852 80.7596C41.202 81.0758 41.2118 81.4464 41.1144 81.8724C41.0239 82.2689 40.8567 82.5869 40.6127 82.8276C40.3739 83.0654 40.0749 83.2194 39.7157 83.2914C39.3565 83.3628 38.9516 83.3463 38.5009 83.2413L37.0051 82.892ZM38.2921 82.1934L38.7302 82.2954C38.968 82.3509 39.1735 82.3656 39.3465 82.3391C39.5205 82.309 39.6625 82.2353 39.7726 82.119C39.8869 82.0034 39.9691 81.8364 40.0192 81.6169C40.0789 81.3555 40.0804 81.1472 40.0235 80.992C39.9709 80.8374 39.8686 80.7182 39.7164 80.6339C39.5685 80.5501 39.3818 80.4822 39.1565 80.4297L38.7183 80.3276L38.2921 82.1934Z" fill="black"/>
<path d="M30.5087 79.6839L33.5178 76.8706L34.6379 77.4223L34.3076 81.5561L33.2569 81.0387L33.6246 78.1003L33.6073 78.0914L31.5306 80.1878L30.5087 79.6839ZM31.836 79.688L32.2049 78.9239L33.8388 79.7294L33.4699 80.4935L31.836 79.688Z" fill="black"/>
<path d="M73.7255 73.5817L70.9307 70.9478L71.6315 70.1884L74.306 70.3925L74.3147 70.3831L72.7836 68.9398L73.5328 68.1285L76.3276 70.7619L75.6619 71.4835L72.8916 71.2782L72.887 71.2829L74.4707 72.7745L73.7255 73.5817Z" fill="black"/>
<path d="M66.0663 79.5618L63.7661 76.4776L64.6432 75.8097L66.9434 78.8938L66.0663 79.5618Z" fill="black"/>
<path d="M50.5189 84.4644L50.0531 80.6315L51.1433 80.4958L51.6091 84.3293L50.5189 84.4644Z" fill="black"/>
<path d="M43.8348 84.5164L44.0349 80.6599L45.6128 80.7431C46.0491 80.7661 46.4281 80.8575 46.75 81.018C47.0719 81.1779 47.3174 81.4051 47.4865 81.7001C47.6558 81.991 47.7292 82.3544 47.7065 82.7911C47.6855 83.197 47.5755 83.5398 47.3766 83.8195C47.1822 84.0957 46.9142 84.2998 46.5729 84.4338C46.2314 84.5671 45.8298 84.622 45.3679 84.5972L43.8348 84.5164ZM44.9822 83.6018L45.4312 83.626C45.675 83.6384 45.8798 83.6171 46.0456 83.5605C46.2117 83.5003 46.339 83.403 46.4274 83.269C46.5201 83.1351 46.5723 82.9563 46.584 82.7315C46.5979 82.4636 46.5635 82.2583 46.4808 82.1149C46.4025 81.9721 46.2811 81.8724 46.1168 81.8163C45.9568 81.7603 45.7613 81.7261 45.5304 81.7137L45.0813 81.6901L44.9822 83.6018Z" fill="black"/>
<path d="M78.761 67.5131C78.6594 67.6837 78.5426 67.8501 78.4112 68.0123C78.2798 68.1752 78.1379 68.3339 77.9855 68.4885L77.721 68.7446L77.1078 68.1752L77.401 67.8082C77.5102 67.6671 77.617 67.5249 77.7221 67.3821C77.8232 67.2364 77.9073 67.1084 77.9732 66.9969C78.0614 66.8488 78.1093 66.726 78.1169 66.6298C78.1262 66.5295 78.1 66.4605 78.0375 66.4227C77.9972 66.398 77.9546 66.3903 77.9102 66.398C77.8652 66.4062 77.7998 66.4446 77.714 66.5136C77.624 66.5803 77.4985 66.6912 77.3367 66.8452C77.0985 67.0694 76.8923 67.2394 76.7183 67.3556C76.5431 67.4659 76.3738 67.5196 76.2103 67.5167C76.0473 67.5137 75.8687 67.453 75.6742 67.3349C75.4354 67.1904 75.2771 67.011 75.1994 66.7974C75.1241 66.5797 75.1154 66.3419 75.1737 66.0846C75.2316 65.8274 75.3413 65.5631 75.5025 65.2922C75.5971 65.1329 75.7075 64.9724 75.833 64.8119C75.9592 64.6508 76.097 64.4945 76.2465 64.3434L76.424 64.1711L77.0418 64.7199L76.8112 65.0196C76.7171 65.1441 76.6272 65.2663 76.5414 65.3854C76.4549 65.5046 76.3779 65.6221 76.3095 65.7371C76.2062 65.9112 76.1495 66.0487 76.1396 66.149C76.1262 66.2469 76.1548 66.3171 76.2243 66.359C76.2611 66.3814 76.3031 66.3867 76.3498 66.3749C76.3995 66.3596 76.4672 66.3124 76.5536 66.2339C76.643 66.1513 76.7738 66.0239 76.9461 65.851C77.1721 65.6144 77.3741 65.4468 77.5528 65.3483C77.7332 65.2462 77.9008 65.199 78.0562 65.2073C78.2109 65.2155 78.3674 65.2674 78.5251 65.3636C78.7785 65.517 78.949 65.7088 79.0372 65.9389C79.1254 66.169 79.1435 66.4198 79.0915 66.6918C79.0366 66.9609 78.9263 67.2346 78.761 67.5131Z" fill="black"/>
<path d="M17.0247 49.0092C17.0247 49.4635 16.9412 49.868 16.7742 50.2229C16.6028 50.5734 16.3459 50.8481 16.0034 51.0472C15.6607 51.2462 15.2325 51.3457 14.7186 51.3457C14.3461 51.3457 14.0163 51.2851 13.7294 51.164C13.4425 51.0428 13.2027 50.874 13.01 50.6577C12.813 50.4371 12.6652 50.1817 12.5668 49.8919C12.464 49.6019 12.4126 49.2904 12.4126 48.9572C12.4126 48.7236 12.4361 48.4942 12.4833 48.2692C12.5303 48.0442 12.5903 47.83 12.6631 47.6267L12.7017 47.5423L13.5753 47.7435L13.5496 47.9123C13.5239 48.0896 13.5003 48.2584 13.4789 48.4185C13.4575 48.5743 13.4468 48.7344 13.4468 48.8988C13.4468 49.1627 13.4917 49.3899 13.5817 49.5803C13.6716 49.7707 13.8086 49.9178 13.9928 50.0217C14.1769 50.1255 14.4167 50.1774 14.7122 50.1774C15.0162 50.1774 15.2625 50.1298 15.4509 50.0346C15.6351 49.9351 15.7721 49.7945 15.862 49.6128C15.9476 49.4267 15.9905 49.2017 15.9905 48.9378C15.9905 48.7906 15.9798 48.6327 15.9584 48.464C15.937 48.2952 15.9091 48.1156 15.8749 47.9253L15.8171 47.6397L16.6907 47.4514L16.7485 47.5942C16.8384 47.8149 16.9069 48.0486 16.954 48.2952C17.0011 48.5375 17.0247 48.7755 17.0247 49.0092Z" fill="black"/>
<path d="M17.3853 42.2292C17.2213 42.6846 16.9887 43.0457 16.6875 43.3125C16.3837 43.5738 16.0367 43.7339 15.6463 43.793C15.2559 43.852 14.8434 43.8016 14.4088 43.6417C13.9742 43.4819 13.6289 43.2513 13.3729 42.95C13.1143 42.643 12.9545 42.2896 12.8935 41.8895C12.8325 41.4896 12.8811 41.07 13.0393 40.6309C13.2033 40.1755 13.4373 39.8171 13.741 39.5559C14.0422 39.2891 14.3879 39.1261 14.7784 39.0671C15.1647 39.0065 15.5752 39.0562 16.0098 39.2161C16.4444 39.3759 16.791 39.6093 17.0496 39.9162C17.3097 40.219 17.4701 40.5704 17.5312 40.9704C17.5921 41.3705 17.5435 41.79 17.3853 42.2292ZM16.4014 41.8673C16.4835 41.6396 16.5135 41.4297 16.4917 41.2374C16.4672 41.0397 16.3833 40.8614 16.2399 40.7028C16.0965 40.5441 15.886 40.4138 15.6083 40.3117C15.3307 40.2096 15.0892 40.1714 14.884 40.1973C14.6787 40.223 14.5058 40.3045 14.3652 40.4416C14.2207 40.5772 14.1067 40.7609 14.0232 40.9927C13.9412 41.2204 13.9124 41.4331 13.9368 41.6309C13.9573 41.8272 14.0372 42.004 14.1765 42.1611C14.3173 42.3142 14.5286 42.4425 14.8103 42.5461C15.0879 42.6482 15.3314 42.6872 15.5407 42.6628C15.7459 42.637 15.9208 42.5562 16.0654 42.4206C16.2059 42.2835 16.3179 42.0991 16.4014 41.8673Z" fill="black"/>
<path d="M19.0008 36.4466L14.8317 34.7447L15.2071 33.8059L18.313 32.8128L18.3178 32.8008L15.9891 31.8501L16.4102 30.7969L20.5793 32.4989L20.2279 33.3775L17.0086 34.3944L17.0038 34.4064L19.4218 35.3935L19.0008 36.4466Z" fill="black"/>
<path d="M25.2903 26.4813L22.6335 26.8129L22.566 26.0864L25.2187 25.7597L25.2903 26.4813ZM24.1316 27.8967C23.8234 28.268 23.4825 28.5269 23.1092 28.6735C22.7353 28.8141 22.355 28.8447 21.9681 28.7652C21.5813 28.6858 21.2107 28.4958 20.8565 28.1954C20.5022 27.895 20.2557 27.5591 20.1172 27.1874C19.9781 26.8096 19.9476 26.4222 20.0257 26.0253C20.1037 25.6283 20.2914 25.2509 20.5887 24.8929C20.897 24.5217 21.2381 24.2658 21.612 24.1252C21.9853 23.9786 22.3654 23.945 22.7522 24.0244C23.1358 24.1011 23.5047 24.2896 23.859 24.59C24.2133 24.8904 24.46 25.2294 24.5991 25.6072C24.7409 25.9817 24.7728 26.3673 24.6947 26.7643C24.6166 27.1613 24.4289 27.5387 24.1316 27.8967ZM23.3296 27.2167C23.4837 27.031 23.583 26.8441 23.6275 26.656C23.6715 26.4616 23.653 26.2652 23.5719 26.0666C23.4909 25.868 23.3372 25.6727 23.1109 25.4808C22.8845 25.2888 22.6705 25.1695 22.4689 25.1229C22.2673 25.0762 22.0773 25.093 21.8988 25.1733C21.717 25.2508 21.5477 25.384 21.3908 25.5729C21.2367 25.7586 21.1376 25.9485 21.0937 26.1428C21.0464 26.3343 21.0617 26.528 21.1394 26.7239C21.2199 26.9163 21.375 27.11 21.6046 27.3046C21.831 27.4966 22.0466 27.6173 22.2515 27.6667C22.4531 27.7134 22.6448 27.698 22.8265 27.6205C23.005 27.5402 23.1727 27.4056 23.3296 27.2167Z" fill="black"/>
<path d="M28.1332 23.8174L25.6843 20.007L28.6365 18.0698L29.1683 18.8972L27.1642 20.2122L27.591 20.8763L29.3796 19.7027L29.8659 20.4593L28.0773 21.6329L28.5461 22.3623L30.5879 21.0226L31.1231 21.8554L28.1332 23.8174Z" fill="black"/>
<path d="M36.3817 19.257C36.0146 19.4712 35.6582 19.5917 35.3125 19.6185C34.9705 19.6431 34.6576 19.5758 34.3738 19.4166C34.0878 19.2537 33.8464 18.9998 33.6494 18.6551L32.3101 16.3111L33.2892 15.74L34.5482 17.9434C34.7324 18.2657 34.935 18.4472 35.1561 18.4881C35.3751 18.5252 35.6182 18.4659 35.8851 18.3101C36.1522 18.1543 36.3208 17.9735 36.3911 17.7677C36.4629 17.5558 36.4068 17.2888 36.2226 16.9666L34.9636 14.7632L35.9093 14.2115L37.2486 16.5554C37.4456 16.9002 37.5387 17.2405 37.528 17.5766C37.5188 17.9067 37.4163 18.2163 37.2206 18.5054C37.0248 18.7945 36.7451 19.045 36.3817 19.257Z" fill="black"/>
<path d="M41.682 17.5988L40.9013 13.1245L43.0584 12.7402C43.3874 12.6816 43.6799 12.6888 43.9362 12.7617C44.1967 12.834 44.4109 12.965 44.5788 13.1547C44.7509 13.3437 44.8626 13.5853 44.914 13.8793C44.9608 14.1478 44.9479 14.3851 44.8751 14.5914C44.8067 14.7969 44.6918 14.9733 44.5305 15.1207C44.3727 15.2631 44.1827 15.3826 43.9604 15.4793C43.7373 15.5718 43.4972 15.6409 43.24 15.6868L42.5188 15.8153L42.7954 17.4004L41.682 17.5988ZM44.4465 17.1063L43.1894 15.5837L44.2038 15.1921L45.6801 16.8865L44.4465 17.1063ZM42.3727 14.9779L43.2267 14.8258C43.4544 14.7852 43.617 14.7079 43.7146 14.5938C43.8155 14.4748 43.8497 14.3215 43.8169 14.134C43.785 13.9508 43.7025 13.8271 43.5696 13.7629C43.4408 13.698 43.2605 13.6862 43.0285 13.7275L42.1809 13.8785L42.3727 14.9779Z" fill="black"/>
<path d="M51.2445 17.2049L51.4932 15.7796L50.2414 12.4128L51.5572 12.6473L52.2373 14.8049L52.2626 14.8094L53.6384 13.018L54.9036 13.2434L52.6174 15.9535L52.3642 17.4044L51.2445 17.2049Z" fill="black"/>
<path d="M57.4266 18.3311C57.0112 18.0888 56.6997 17.7947 56.4919 17.4486C56.29 17.101 56.1942 16.7278 56.2045 16.3291C56.2147 15.9304 56.3355 15.5287 56.5667 15.124C56.798 14.7193 57.0827 14.4157 57.4209 14.2132C57.7649 14.0093 58.1373 13.9117 58.5373 13.9204C58.9379 13.9292 59.3385 14.0504 59.7391 14.2841C60.1543 14.5264 60.4632 14.8213 60.6653 15.169C60.8726 15.515 60.9713 15.8874 60.9614 16.2861C60.9532 16.6811 60.8335 17.0809 60.6022 17.4856C60.371 17.8903 60.0831 18.1947 59.7391 18.3987C59.3987 18.6049 59.0285 18.7036 58.6279 18.6948C58.2279 18.686 57.8271 18.5648 57.4266 18.3311ZM57.9499 17.4149C58.1578 17.5361 58.3575 17.6024 58.5484 17.6141C58.7452 17.624 58.9339 17.5715 59.1131 17.4564C59.293 17.3413 59.4565 17.1544 59.6042 16.8959C59.752 16.6373 59.8308 16.4036 59.8413 16.1949C59.8518 15.9862 59.8028 15.8 59.6936 15.6364C59.5861 15.469 59.4267 15.3236 59.2153 15.2003C59.008 15.0791 58.8054 15.0136 58.6086 15.0035C58.4136 14.9898 58.2273 15.0386 58.0503 15.1499C57.8765 15.2635 57.7147 15.4514 57.5648 15.7137C57.4171 15.9723 57.3369 16.2078 57.3243 16.4203C57.3138 16.629 57.3621 16.8171 57.4692 16.9845C57.5784 17.1481 57.7387 17.2916 57.9499 17.4149Z" fill="black"/>
<path d="M68.3654 24.08L71.489 20.8118L73.0645 22.3492C73.3051 22.5837 73.4709 22.8271 73.5632 23.0794C73.6584 23.3348 73.6794 23.5869 73.6263 23.8357C73.576 24.0875 73.4481 24.3208 73.2432 24.5355C73.0557 24.7317 72.8583 24.8606 72.6505 24.9224C72.4455 24.9872 72.2364 24.997 72.0239 24.9518C71.8171 24.9065 71.6098 24.8214 71.4014 24.6966C71.1964 24.5686 71.0002 24.4129 70.8122 24.2296L70.2854 23.7156L69.1788 24.8735L68.3654 24.08ZM70.3847 26.0502L70.8647 24.1277L71.7745 24.7267L71.2857 26.9294L70.3847 26.0502ZM70.87 23.104L71.4936 23.7127C71.6601 23.875 71.8171 23.9624 71.9661 23.9751C72.1208 23.9877 72.2633 23.9255 72.3941 23.7886C72.522 23.6547 72.5728 23.5146 72.5459 23.3682C72.5226 23.2248 72.4256 23.0704 72.2563 22.9051L71.6373 22.3009L70.87 23.104Z" fill="black"/>
<path d="M63.7731 21.7085C63.4216 21.469 63.1582 21.1982 62.983 20.8959C62.8108 20.5962 62.7337 20.2825 62.7506 19.955C62.7705 19.6239 62.8902 19.2933 63.1109 18.9633L64.6088 16.7195L65.546 17.3582L64.1381 19.4675C63.932 19.776 63.859 20.0397 63.9197 20.2584C63.9828 20.4736 64.1422 20.6682 64.398 20.8425C64.6532 21.0167 64.8879 21.0906 65.1022 21.0642C65.3218 21.0365 65.5349 20.8685 65.7405 20.56L67.149 18.4507L68.0541 19.0677L66.5563 21.3115C66.3361 21.6415 66.0739 21.8753 65.7703 22.0129C65.4724 22.1492 65.1524 22.1919 64.8097 22.1408C64.4663 22.0898 64.1212 21.9457 63.7731 21.7085Z" fill="black"/>
</g>
<defs>
<clipPath id="clip0_23_567">
<rect width="96" height="97" fill="white"/>
</clipPath>
</defs>
</svg>
